HIERARCHY
ROOT Hips
{
	OFFSET 0.000000 0.000000 0.000000
	CHANNELS 6 Xposition Yposition Zposition Zrotation Yrotation Xrotation 
	JOINT LHipJoint
	{
		OFFSET 0.000000 0.000000 0.000000
		CHANNELS 3 Zrotation Yrotation Xrotation
		JOINT LeftUpLeg
		{
			OFFSET 1.363060 -1.794630 0.839290
			CHANNELS 3 Zrotation Yrotation Xrotation
			JOINT LeftLeg
			{
				OFFSET 2.448110 -6.726130 0.000000
				CHANNELS 3 Zrotation Yrotation Xrotation
				JOINT LeftFoot
				{
					OFFSET 2.562200 -7.039590 0.000000
					CHANNELS 3 Zrotation Yrotation Xrotation
					JOINT LeftToeBase
					{
						OFFSET 0.157640 -0.433110 2.322550
						CHANNELS 3 Zrotation Yrotation Xrotation
						End Site
						{
							OFFSET 0.000000 0.000000 0.000000
						}
					}
				}
			}
		}
	}
	JOINT RHipJoint
	{
		OFFSET 0.000000 0.000000 0.000000
		CHANNELS 3 Zrotation Yrotation Xrotation
		JOINT RightUpLeg
		{
			OFFSET -1.305520 -1.794630 0.839290
			CHANNELS 3 Zrotation Yrotation Xrotation
			JOINT RightLeg
			{
				OFFSET -2.542530 -6.985550 0.000000
				CHANNELS 3 Zrotation Yrotation Xrotation
				JOINT RightFoot
				{
					OFFSET -2.568260 -7.056230 0.000000
					CHANNELS 3 Zrotation Yrotation Xrotation
					JOINT RightToeBase
					{
						OFFSET -0.164730 -0.452590 2.363150
						CHANNELS 3 Zrotation Yrotation Xrotation
						End Site
						{
							OFFSET 0.000000 0.000000 0.000000
						}
					}
				}
			}
		}
	}
}
MOTION
Frames: 28
Frame Time: 0.008333
2.720792 16.835385 1.043611 -170.031163 -60.590068 -151.399724 -8.695548 1.344138 -4.240692 -27.033036 24.984574 -62.517846 -5.294887 3.213032 31.605047 3.580489 15.531532 -13.267986 -0.832500 0.000000 -39.159300 8.469592 0.918849 3.488932 7.831698 5.656618 -55.774415 4.395181 -0.520260 16.533758 2.019672 9.915111 6.584638 1.941300 -0.000000 -70.936600
2.727270 16.817439 1.048891 -170.209103 -60.080470 -150.980266 -8.651793 1.366805 -4.319640 -27.361740 25.007079 -63.012334 -5.300631 3.305631 32.107103 3.638476 15.743308 -13.529464 -0.918300 -0.000000 -39.064800 8.461027 0.960979 3.541981 7.629311 5.915679 -56.337802 4.372394 -0.570124 16.881005 2.057665 10.166511 6.523784 2.009700 0.000000 -71.050900
2.736033 16.799698 1.052088 -170.427092 -59.600649 -150.541261 -8.604669 1.382921 -4.400397 -27.654550 24.980673 -63.450631 -5.294891 3.392312 32.606412 3.705098 16.006337 -13.771615 -1.002300 -0.000000 -38.959000 8.460689 1.008357 3.580252 7.417499 6.135929 -56.910564 4.343223 -0.629777 17.284722 2.094723 10.427853 6.438651 2.078800 -0.000000 -71.166600
2.747367 16.781927 1.053502 -170.682304 -59.152084 -150.086551 -8.554092 1.393318 -4.483395 -27.915925 24.911935 -63.839760 -5.279269 3.473972 33.106868 3.778536 16.309925 -13.999947 -1.086100 0.000000 -38.835300 8.468174 1.060472 3.604689 7.197598 6.319966 -57.495582 4.307363 -0.699578 17.750238 2.130535 10.695950 6.328466 2.147100 -0.000000 -71.283600
2.761286 16.764029 1.053433 -170.968263 -58.732715 -149.624198 -8.501392 1.398999 -4.568016 -28.150225 24.811411 -64.187207 -5.255702 3.551571 33.609386 3.856556 16.641978 -14.217982 -1.170699 0.000000 -38.691800 8.481442 1.115996 3.618666 6.968578 6.477371 -58.090024 4.264079 -0.778298 18.275556 2.163878 10.960124 6.195067 2.211500 0.000000 -71.396100
2.777438 16.745910 1.052316 -171.275571 -58.343996 -149.163762 -8.448082 1.401048 -4.652593 -28.363371 24.688107 -64.501288 -5.226097 3.625738 34.113944 3.936709 16.988965 -14.428794 -1.256600 0.000000 -38.528500 8.498343 1.172985 3.626192 6.730417 6.615449 -58.691948 4.213495 -0.864512 18.855692 2.193872 11.211623 6.040689 2.269100 -0.000000 -71.500400
2.795086 16.727658 1.050231 -171.598967 -57.986845 -148.707077 -8.394918 1.400483 -4.735111 -28.562302 24.549445 -64.789852 -5.192741 3.696448 34.614947 4.016495 17.337642 -14.632574 -1.343100 0.000000 -38.351600 8.517552 1.229677 3.631083 6.483919 6.739550 -59.297949 4.156336 -0.956100 19.478509 2.219820 11.442713 5.869650 2.318300 0.000000 -71.594100
2.813652 16.709235 1.047502 -171.928162 -57.662238 -148.261469 -8.342829 1.397984 -4.814425 -28.750861 24.402584 -65.062513 -5.157606 3.764666 35.110999 4.093603 17.675160 -14.831344 -1.430200 0.000000 -38.166200 8.537434 1.285281 3.635182 6.232128 6.854690 -59.904386 4.093636 -1.051136 20.133969 2.241127 11.646725 5.685266 2.357400 -0.000000 -71.675800
2.832317 16.690561 1.044456 -172.248817 -57.371099 -147.832791 -8.293066 1.394305 -4.889648 -28.931083 24.252774 -65.329399 -5.122510 3.831806 35.602467 4.166358 17.991213 -15.028352 -1.517900 0.000000 -37.977900 8.556305 1.339585 3.639079 5.980011 6.964525 -60.508292 4.027127 -1.147688 20.811949 2.257503 11.819252 5.489799 2.385300 0.000000 -71.744500
2.850774 16.671533 1.041463 -172.553200 -57.113877 -147.426065 -8.246535 1.389711 -4.960835 -29.102626 24.104013 -65.600534 -5.088749 3.899831 36.092696 4.233360 18.277033 -15.227326 -1.606600 0.000000 -37.791800 8.572540 1.393316 3.641629 5.733268 7.071310 -61.107195 3.958214 -1.244393 21.505938 2.268815 11.957760 5.284252 2.401301 -0.000000 -71.800399
2.868622 16.651881 1.038865 -172.831744 -56.891181 -147.045632 -8.204916 1.384871 -5.027331 -29.264995 23.958916 -65.884979 -5.057076 3.970571 36.587925 4.293837 18.526697 -15.432847 -1.697200 0.000001 -37.611500 8.584329 1.446337 3.642398 5.497202 7.176150 -61.700719 3.888438 -1.340450 22.214193 2.275250 12.062286 5.066407 2.405200 -0.000000 -71.843899
2.885529 16.631497 1.036872 -173.079250 -56.704102 -146.692987 -8.168942 1.379896 -5.088964 -29.416921 23.817928 -66.189332 -5.027888 4.045316 37.091726 4.347358 18.736788 -15.647017 -1.789700 0.000000 -37.443100 8.590731 1.499050 3.640002 5.277541 7.277815 -62.288104 3.819411 -1.435278 22.932879 2.277262 12.135223 4.836094 2.397400 -0.000000 -71.875900
2.901293 16.610203 1.035623 -173.292437 -56.554603 -146.369993 -8.139313 1.375025 -5.144816 -29.557946 23.680113 -66.518826 -5.000966 4.124868 37.609046 4.393855 18.905767 -15.871534 -1.884200 -0.000000 -37.290400 8.591071 1.551016 3.634341 5.078425 7.374193 -62.871390 3.752515 -1.528971 23.662121 2.275514 12.180709 4.591050 2.378900 0.000000 -71.898101
2.915617 16.587872 1.035005 -173.471898 -56.442882 -146.072353 -8.116250 1.370431 -5.193958 -29.687182 23.543217 -66.876074 -4.976011 4.209445 38.142412 4.433597 19.034389 -16.106587 -1.980400 0.000000 -37.158500 8.585500 1.601763 3.625354 4.903377 7.462354 -63.452427 3.688953 -1.621758 24.401415 2.270805 12.204054 4.330004 2.351000 -0.000000 -71.912000
2.928391 16.564436 1.034977 -173.616881 -56.370121 -145.800489 -8.099556 1.365970 -5.235494 -29.804099 23.404862 -67.262888 -4.952265 4.298964 38.694220 4.467138 19.125054 -16.351612 -2.077800 0.000001 -37.050601 8.574332 1.650677 3.613352 4.755135 7.540110 -64.033803 3.629592 -1.714292 25.152064 2.263933 12.210925 4.052067 2.315200 -0.000000 -71.918800
2.939647 16.539822 1.035229 -173.734985 -56.334901 -145.547963 -8.088726 1.362049 -5.268225 -29.909707 23.262340 -67.678327 -4.929017 4.392857 39.265629 4.495044 19.180826 -16.605471 -2.175700 0.000000 -36.968100 8.558618 1.696961 3.599321 4.634609 7.603559 -64.618492 3.574960 -1.807397 25.915918 2.255897 12.208317 3.756175 2.273400 -0.000000 -71.919800
2.949343 16.514028 1.035648 -173.824968 -56.336125 -145.314321 -8.083139 1.358173 -5.292384 -30.002690 23.114173 -68.121033 -4.905542 4.490746 39.856654 4.518089 19.205966 -16.866870 -2.273700 -0.000001 -36.910600 8.539116 1.740651 3.583087 4.542237 7.652195 -65.208148 3.525222 -1.901734 26.693985 2.247213 12.200493 3.443144 2.226900 -0.000000 -71.915200
2.957675 16.487072 1.036037 -173.893111 -56.371905 -145.096321 -8.081975 1.354680 -5.307361 -30.085139 22.958868 -68.588123 -4.881177 4.591714 40.466302 4.536872 19.204030 -17.134376 -2.371200 -0.000000 -36.876500 8.516970 1.781169 3.565791 4.477003 7.684010 -65.805171 3.480271 -1.998179 27.488390 2.238653 12.193058 3.113569 2.177300 0.000001 -71.905400
2.964769 16.458997 1.036093 -173.944328 -56.438232 -144.889272 -8.084370 1.351726 -5.313485 -30.158710 22.796314 -69.076449 -4.855688 4.694969 41.091934 4.551859 19.178132 -17.406575 -2.467700 -0.000000 -36.863301 8.493240 1.818503 3.548084 4.436575 7.699035 -66.410967 3.439655 -2.097209 28.299638 2.230644 12.189370 2.768941 2.125800 -0.000000 -71.890200
2.970885 16.429891 1.035648 -173.984830 -56.532096 -144.689642 -8.089351 1.349586 -5.311278 -30.226086 22.627289 -69.582592 -4.828953 4.799727 41.730534 4.563362 19.130806 -17.682019 -2.562699 -0.000000 -36.866299 8.468923 1.852697 3.530641 4.418296 7.697630 -67.025944 3.402718 -2.199168 29.127637 2.223500 12.191947 2.411377 2.073200 0.000000 -71.869200
2.976272 16.399933 1.034498 -174.019920 -56.649911 -144.494026 -8.095985 1.348702 -5.301589 -30.291042 22.453379 -70.102605 -4.801238 4.905060 42.377193 4.571370 19.063029 -17.959044 -2.655600 0.000000 -36.881900 8.444934 1.883906 3.514100 4.418653 7.680346 -67.649417 3.368848 -2.304033 29.970000 2.217405 12.202237 2.043551 2.020400 0.000000 -71.842200
2.980841 16.369226 1.032613 -174.048061 -56.789266 -144.301932 -8.103764 1.349493 -5.285467 -30.357059 22.276855 -70.632732 -4.773067 5.010089 43.026325 4.575733 18.974785 -18.236250 -2.745700 0.000000 -36.906400 8.421806 1.912211 3.499093 4.434052 7.648848 -68.280266 3.337643 -2.411474 30.822760 2.212313 12.219930 1.668501 1.967700 -0.000000 -71.809300
2.984959 16.338034 1.029802 -174.079258 -56.946355 -144.107137 -8.111515 1.352537 -5.263831 -30.428762 22.099564 -71.170307 -4.745126 5.114084 43.672303 4.576162 18.865616 -18.511906 -2.832100 -0.000000 -36.936700 8.400375 1.937908 3.486331 4.460815 7.604364 -68.916653 3.308402 -2.520933 31.680709 2.208191 12.244539 1.289386 1.915500 0.000000 -71.770701
2.988531 16.306539 1.026066 -174.111691 -57.119297 -143.909110 -8.118889 1.358170 -5.238298 -30.508971 21.924763 -71.710945 -4.718340 5.216322 44.308422 4.572166 18.734107 -18.784250 -2.913901 -0.000000 -36.971200 8.380965 1.961365 3.475607 4.495920 7.548421 -69.554288 3.280873 -2.631532 32.536976 2.204730 12.273963 0.909605 1.863700 0.000000 -71.727601
2.991742 16.275064 1.021387 -174.150276 -57.306271 -143.705641 -8.124993 1.366613 -5.210318 -30.600640 21.754234 -72.251176 -4.693427 5.316175 44.928752 4.563360 18.579474 -19.050977 -2.989900 0.000000 -37.008900 8.364023 1.983110 3.466777 4.536660 7.482304 -70.189430 3.254786 -2.742320 33.383793 2.201635 12.305990 0.532191 1.812500 0.000000 -71.680901
2.994479 16.243874 1.015929 -174.191445 -57.506446 -143.498222 -8.129533 1.377835 -5.181370 -30.704890 21.590128 -72.786962 -4.671148 5.412991 45.527059 4.549465 18.401209 -19.310040 -3.059100 0.000000 -37.049999 8.349720 2.003524 3.459315 4.580648 7.407486 -70.816881 3.230107 -2.852250 34.213262 2.198459 12.337524 0.160358 1.761600 0.000000 -71.632200
2.996916 16.213308 1.009685 -174.240404 -57.717307 -143.283731 -8.132099 1.391820 -5.152837 -30.821854 21.433103 -73.313372 -4.652012 5.506261 46.098024 4.530549 18.201012 -19.558801 -3.120600 -0.000001 -37.095800 8.338266 2.023407 3.452412 4.625352 7.324666 -71.431161 3.206653 -2.960162 35.017396 2.194866 12.366208 -0.203119 1.711200 0.000001 -71.584901
2.998760 16.183626 1.002847 -174.288227 -57.941225 -143.067613 -8.131964 1.407398 -5.126287 -30.949235 21.283973 -73.827678 -4.636310 5.595317 46.637260 4.506436 17.978728 -19.794828 -3.173200 -0.000000 -37.146900 8.330006 2.042674 3.445368 4.669806 7.237208 -72.027327 3.184370 -3.065129 35.789478 2.189808 12.385674 -0.557052 1.660600 0.000000 -71.534100
